<svg xmlns="http://www.w3.org/2000/svg" xml:space="preserve" id="Ebene_1" x="0" y="0" version="1.1" viewBox="4 77 495 120"><style>.st1{stroke-miterlimit:10;fill:none;stroke:#4594d1;stroke-width:9;stroke-linecap:round;stroke-linejoin:round}</style><path fill="none" stroke="#575756" stroke-linecap="round" stroke-linejoin="round" stroke-miterlimit="10" stroke-width="9" d="M30.83 96.79V82.22h155.9v87.88h-80.75v21.97h44.98"/><path d="M8.86 115.17c6.79-2.72 14.21-4.21 21.97-4.21 32.66 0 59.14 26.48 59.14 59.14 0 7.76-1.5 15.18-4.21 21.97" class="st1"/><path d="M30.83 125.12v44.98H75.8" class="st1"/><path fill="none" stroke="#4594d1" stroke-linecap="round" stroke-linejoin="round" stroke-width="9" d="m105.98 126.22 21.97 21.94 26.23-31.23"/><path fill="#4594d1" d="m137.88 106.59 29.3 24.62-2.35-26.95z"/><path fill="#4593d0" stroke="#4593d0" stroke-miterlimit="10" stroke-width="2" d="M215.18 194.58c-.66-.66-.99-1.47-.99-2.43v-46.51c0-.96.33-1.79.99-2.47.66-.68 1.47-1.03 2.43-1.03h17.71c6.89 0 12.06 1.42 15.5 4.26 3.44 2.84 5.17 6.56 5.17 11.17 0 3.04-.85 5.81-2.55 8.32-1.7 2.51-4.17 4.32-7.41 5.43 3.65.96 6.14 3.23 7.49 6.8 1.34 3.57 2.01 7.08 2.01 10.53v3.5c0 .96-.33 1.77-.99 2.43-.66.66-1.47.99-2.43.99-1.06 0-1.91-.32-2.55-.95-.63-.63-.95-1.46-.95-2.47v-2.28c0-2.53-.23-4.88-.68-7.03-.46-2.15-1.55-4.08-3.27-5.78-1.72-1.7-4.33-2.55-7.83-2.55H221.1v17.63c0 .96-.34 1.77-1.03 2.43-.68.66-1.51.99-2.47.99-.95 0-1.76-.33-2.42-.98zm19.69-26.6c4.36 0 7.81-.86 10.37-2.58 2.56-1.72 3.84-4.15 3.84-7.3 0-3.04-1.1-5.37-3.31-6.99-2.2-1.62-5.97-2.43-11.29-2.43H221.1v19.3h13.77zm34.92 22.68c-3.47-3.52-5.21-8.47-5.21-14.86 0-3.6.66-6.92 1.98-9.96 1.32-3.04 3.34-5.5 6.08-7.37s6.1-2.81 10.11-2.81c3.75 0 6.99.87 9.73 2.62s4.81 4.08 6.23 6.99c1.42 2.91 2.13 6.09 2.13 9.54 0 .96-.32 1.77-.95 2.43-.63.66-1.48.99-2.55.99h-25.76c.41 3.55 1.72 6.31 3.95 8.28 2.23 1.98 5.34 2.96 9.35 2.96 2.13 0 3.99-.2 5.59-.61 1.6-.41 3.15-.99 4.67-1.75.4-.2.86-.3 1.37-.3.81 0 1.52.28 2.13.84.61.56.91 1.27.91 2.13 0 1.12-.66 2.05-1.98 2.81-1.98 1.12-3.93 1.95-5.85 2.51s-4.41.84-7.45.84c-6.18 0-11.01-1.76-14.48-5.28zM294 172.61c-.15-2.48-.8-4.56-1.94-6.23-1.14-1.67-2.55-2.9-4.22-3.69s-3.37-1.18-5.09-1.18c-1.72 0-3.42.39-5.09 1.18-1.67.79-3.07 2.01-4.18 3.69-1.12 1.67-1.75 3.75-1.9 6.23H294zm14.66 19.91c-.86-.61-1.29-1.44-1.29-2.51 0-.81.28-1.52.84-2.13.56-.61 1.27-.91 2.13-.91.46 0 .91.1 1.37.3 1.62.71 3.24 1.27 4.86 1.67 1.62.41 3.44.61 5.47.61 5.62 0 8.44-1.8 8.44-5.4 0-1.17-.65-2.05-1.94-2.66-1.29-.61-3.41-1.29-6.35-2.05-2.99-.71-5.46-1.44-7.41-2.2-1.95-.76-3.62-1.91-5.02-3.46-1.39-1.54-2.09-3.58-2.09-6.12 0-3.55 1.28-6.43 3.84-8.66s6.22-3.34 10.98-3.34c3.9 0 7.57.63 11.02 1.9.71.2 1.25.58 1.63 1.14.38.56.57 1.14.57 1.75 0 .81-.29 1.52-.87 2.13-.58.61-1.3.91-2.17.91-.25 0-.58-.05-.99-.15-2.94-.91-5.83-1.37-8.66-1.37-2.74 0-4.88.49-6.42 1.48-1.55.99-2.32 2.27-2.32 3.84 0 1.52.71 2.63 2.13 3.34s3.62 1.39 6.61 2.05c2.99.76 5.42 1.51 7.3 2.24 1.87.74 3.48 1.89 4.83 3.46 1.34 1.57 2.01 3.67 2.01 6.31 0 3.24-1.28 5.93-3.84 8.06-2.56 2.13-6.17 3.19-10.83 3.19-5.06 0-9.67-1.14-13.83-3.42z"/><path fill="#575756" stroke="#575756" stroke-miterlimit="10" stroke-width="2" d="M347.96 194.58c-.66-.66-.99-1.47-.99-2.43v-45.37c0-1.37.48-2.55 1.44-3.53.96-.99 2.13-1.48 3.5-1.48h2.51c1.01 0 1.94.3 2.77.91s1.46 1.37 1.86 2.28l17.25 43.02 17.25-43.02c.41-.91 1.03-1.67 1.86-2.28s1.76-.91 2.77-.91h2.51c1.37 0 2.53.49 3.5 1.48.96.99 1.44 2.17 1.44 3.53v45.37c0 .96-.33 1.77-.99 2.43-.66.66-1.47.99-2.43.99-.96 0-1.79-.33-2.47-.99a3.264 3.264 0 0 1-1.03-2.43v-43.17l-17.56 43.4c-.41.96-1.05 1.74-1.94 2.32-.89.58-1.86.87-2.93.87s-2.04-.29-2.93-.87a5.046 5.046 0 0 1-1.94-2.32l-17.56-43.4v43.17c0 .96-.34 1.77-1.03 2.43-.68.66-1.51.99-2.47.99-.92-.01-1.74-.34-2.39-.99zm76.83-1.14c-2.94-1.67-5.21-4.04-6.8-7.11s-2.39-6.57-2.39-10.53.8-7.46 2.39-10.53c1.6-3.06 3.86-5.43 6.8-7.11 2.94-1.67 6.36-2.51 10.26-2.51 3.85 0 7.25.84 10.18 2.51 2.94 1.67 5.22 4.04 6.84 7.11 1.62 3.07 2.43 6.57 2.43 10.53s-.81 7.46-2.43 10.53c-1.62 3.07-3.9 5.43-6.84 7.11-2.94 1.67-6.33 2.51-10.18 2.51-3.9-.01-7.32-.84-10.26-2.51zm16.23-5.25c1.9-.96 3.47-2.48 4.71-4.56 1.24-2.08 1.86-4.71 1.86-7.9 0-3.14-.62-5.75-1.86-7.83-1.24-2.08-2.81-3.58-4.71-4.52-1.9-.94-3.89-1.41-5.97-1.41-2.13 0-4.14.47-6.04 1.41-1.9.94-3.46 2.45-4.67 4.52-1.22 2.08-1.82 4.69-1.82 7.83 0 3.19.61 5.83 1.82 7.9 1.22 2.08 2.77 3.6 4.67 4.56 1.9.96 3.91 1.44 6.04 1.44 2.08.01 4.07-.47 5.97-1.44zm24.13 6.39c-.66-.66-.99-1.47-.99-2.43v-32.6c0-.96.33-1.79.99-2.47.66-.68 1.47-1.03 2.43-1.03.96 0 1.79.34 2.47 1.03.68.68 1.03 1.51 1.03 2.47v3.12c1.92-2.13 4-3.83 6.23-5.09 2.23-1.27 4.86-1.9 7.9-1.9 2.79 0 5.21.66 7.26 1.98 2.05 1.32 3.62 3.12 4.71 5.4 1.09 2.28 1.63 4.79 1.63 7.52v21.58c0 .96-.34 1.77-1.03 2.43-.68.66-1.51.99-2.47.99-.96 0-1.77-.33-2.43-.99-.66-.66-.99-1.47-.99-2.43v-20.82c0-6.18-2.79-9.27-8.36-9.27-2.53 0-4.8.66-6.8 1.98-2 1.32-3.89 3.09-5.66 5.32v22.8c0 .96-.34 1.77-1.03 2.43-.68.66-1.51.99-2.47.99-.95-.03-1.77-.36-2.42-1.01z"/></svg>